<svg width="61" height="80" viewBox="0 0 61 80" fill="none" xmlns="http://www.w3.org/2000/svg">
<path fill-rule="evenodd" clip-rule="evenodd" d="M10.6296 0.595059C10.4892 0.922376 8.30326 5.9242 5.77194 11.7104C3.24062 17.4967 1.16965 22.2616 1.16965 22.2992C1.16965 22.337 1.81317 22.3678 2.59973 22.3678H4.02981L10.7583 19.5725C14.459 18.0349 17.6026 16.7695 17.7441 16.7604C17.9496 16.7469 18.2446 17.2997 19.2165 19.521L20.4318 22.2984L21.9211 22.3379C23.2976 22.3745 23.4045 22.3586 23.3305 22.1296C23.2864 21.9933 21.1031 16.9762 18.4785 10.9805L13.7068 0.079157L12.2959 0.0395785L10.8849 0L10.6296 0.595059ZM23.8055 1.39842V2.78712H27.2772H30.749V12.5775V22.3678H32.1377H33.5264V12.5775V2.78712H36.9981H40.4699V1.39842V0.00972192H32.1377H23.8055V1.39842ZM43.9416 11.1888V22.3678H45.3303H46.719L46.7221 18.653L46.725 14.9383L52.0572 12.7411C54.9899 11.5326 57.5194 10.5098 57.6784 10.4682L57.9675 10.3926V16.3801V22.3678H59.3562H60.7449V11.1888V0.00972192H59.3562H57.9675V3.67492C57.9675 6.47815 57.9267 7.35623 57.7939 7.40844C57.6985 7.44594 55.2457 8.46025 52.3433 9.66258C49.4409 10.8648 46.9882 11.8785 46.8926 11.9153C46.7554 11.9682 46.719 10.7281 46.719 5.99599V0.00972192H45.3303H43.9416V11.1888ZM16.7231 13.9782C16.7231 14.0698 16.645 14.176 16.5495 14.214C16.4541 14.2522 14.0108 15.2632 11.1202 16.4607C8.22952 17.658 5.84582 18.6178 5.82318 18.5933C5.78499 18.5524 11.3501 5.71451 12.0085 4.32442L12.2999 3.70922L14.5115 8.76048C15.7278 11.5386 16.7231 13.8866 16.7231 13.9782ZM14.7478 26.9477C13.0098 27.3142 11.8415 27.7238 10.3122 28.5025C4.99802 31.2088 1.49377 36.5048 1.07077 42.4693L0.989532 43.6149H4.34297H7.69654V42.9827C7.69654 42.0289 8.08802 40.4748 8.62142 39.3111C9.77223 36.7999 11.9074 34.8324 14.5134 33.8814C19.5056 32.0594 24.9428 34.2588 27.3721 39.0828C28.7397 41.7982 28.7554 45.405 27.4116 48.1525C26.4344 50.1508 27.3597 49.2887 3.14841 70.7578L0.336426 73.2512V76.6256V80L18.0771 79.9647L35.8177 79.9295L35.8549 76.632L35.8922 73.3345L23.1 73.2991L10.308 73.2637L20.0771 64.5938C25.4502 59.8252 30.1779 55.5758 30.5834 55.1506C31.5101 54.1784 32.8119 52.2564 33.4342 50.9416C36.0998 45.3093 35.4143 38.3906 31.7041 33.48C29.075 30.0002 25.3191 27.6768 21.0475 26.8873C19.4236 26.5872 16.3163 26.6171 14.7478 26.9477ZM43.9416 29.9362V33.1997H48.941H53.9403V56.5993V79.9989H57.2732H60.606V53.3358V26.6728H52.2738H43.9416V29.9362Z" fill="white"/>
</svg>
