<svg width="190" height="60" viewBox="0 0 190 60" fill="none" xmlns="http://www.w3.org/2000/svg">
<g clip-path="url(#clip0)">
<path d="M147.866 1.31226C148.277 5.34008 149.416 8.38148 151.601 11.1998C153.28 13.3722 155.112 14.6757 157.742 15.5799C158.764 15.9439 158.916 15.9556 160.584 15.9674C162.111 15.9674 162.463 15.9322 163.226 15.6856C163.931 15.4742 164.905 15.0632 165.081 14.9105C165.187 14.8283 164.694 13.0317 164.4 12.421C163.672 10.9532 162.674 10.2956 158.106 8.28754C155.746 7.25417 154.431 6.51437 152.106 4.89384C151.26 4.3067 151.119 4.11882 151.871 4.57679C153.256 5.42228 154.689 6.04465 157.766 7.10151C161.711 8.45194 163.05 9.12129 164.224 10.3191C165.034 11.1528 165.492 11.9396 165.751 12.926C166.056 14.1238 166.279 18.8914 166.279 24.2696C166.279 27.0409 166.244 29.2956 166.197 29.2956C166.162 29.2956 165.88 29.1429 165.586 28.9433C164.776 28.4266 163.555 27.9099 162.662 27.6868C161.629 27.4402 159.551 27.4402 158.505 27.6985C155.323 28.4501 152.646 31.0922 151.695 34.4272C151.307 35.7659 151.307 38.455 151.695 39.7937C152.223 41.6374 153.104 43.0348 154.583 44.3969C157.531 47.1095 162.099 47.5323 165.399 45.3833C165.798 45.125 166.174 44.9136 166.232 44.9136C166.291 44.9136 166.725 45.3364 167.195 45.853L168.052 46.7925H168.98H169.92L169.943 32.7362C169.978 18.727 169.978 18.6683 170.225 18.1985C170.695 17.3061 170.988 17.2943 174.323 17.9285C176.449 18.3395 177.588 18.3864 178.727 18.0811C180.054 17.7406 181.017 17.0947 181.862 15.9674C182.355 15.3215 183.072 13.9711 183.072 13.6775C183.072 13.6188 182.825 13.7128 182.531 13.9006C181.839 14.3469 180.981 14.5465 180.195 14.4526C179.842 14.4173 178.598 14.0885 177.411 13.7362C174.135 12.7381 173.208 12.6794 171.81 13.3487C171.317 13.5836 169.732 15.0514 169.837 15.1689C169.873 15.1924 170.119 15.1571 170.401 15.0984C170.683 15.028 171.458 14.9692 172.115 14.9692C173.149 14.9692 173.583 15.0397 175.345 15.4859C176.46 15.7678 177.623 16.0496 177.94 16.0848C178.245 16.1318 178.527 16.2257 178.574 16.2962C178.715 16.5311 176.46 16.2845 174.499 15.85C171.599 15.2041 170.518 15.345 168.851 16.5663C168.229 17.0243 168.205 17.0125 168.381 16.0731C168.44 15.756 168.546 14.8753 168.616 14.1238C169.074 9.29743 167.136 5.97419 162.768 4.09533C161.335 3.47296 159.527 3.06195 155.769 2.52178C152.106 1.99335 150.297 1.55886 148.7 0.819061C148.207 0.595947 147.796 0.408062 147.784 0.408062C147.784 0.408062 147.808 0.819061 147.866 1.31226ZM162.204 31.5267C163.191 31.832 164.259 32.5484 164.882 33.3234C167.301 36.3296 166.361 40.7097 162.921 42.4006C162.017 42.8469 161.981 42.8586 160.654 42.8586C159.327 42.8586 159.269 42.8469 158.365 42.4124C155.875 41.2264 154.548 38.4668 155.182 35.7776C155.675 33.6874 157.249 32.0082 159.233 31.4563C160.056 31.2332 161.335 31.2566 162.204 31.5267Z" fill="white"/>
<path d="M0.117432 19.1966V21.6626H9.62917H19.1409V19.1966V16.7306H9.62917H0.117432V19.1966Z" fill="white"/>
<path d="M20.9023 37.1633V46.7925H22.7812H24.6601V41.5317C24.6601 38.4198 24.7188 36.0712 24.7892 35.7659C25.1415 34.2276 26.4332 32.654 27.9246 31.9025C28.817 31.468 28.8288 31.468 30.2849 31.468C31.7058 31.468 31.7997 31.4798 32.563 31.8438C33.5494 32.3135 34.7237 33.4056 35.2052 34.3215C35.9215 35.6837 35.9332 35.7542 35.9332 41.5317V46.7925H37.8238H39.7144L39.6675 41.1794C39.6088 34.85 39.5853 34.6621 38.6341 32.7597C36.0507 27.6046 29.6273 25.9958 24.8714 29.3308C24.6953 29.4482 24.5309 29.3425 23.6854 28.4971L22.7225 27.5341H21.8065H20.9023V37.1633Z" fill="white"/>
<path d="M48.6156 27.6399C46.7837 27.8983 45.1515 28.6968 43.7776 29.9768C42.3214 31.3624 41.4759 32.7481 40.971 34.6387C40.6187 35.9657 40.6187 38.3612 40.971 39.6882C41.8635 42.9996 44.3412 45.5713 47.5118 46.4521C48.827 46.8278 50.882 46.8278 52.1972 46.4521C53.4185 46.1115 54.7572 45.3952 55.6261 44.6202L56.3072 43.9978L55.8962 43.5398C55.6731 43.2932 55.0977 42.6943 54.6162 42.1894L53.7473 41.2969L53.1484 41.7901C52.8196 42.0602 52.2559 42.4125 51.9036 42.5652C51.3282 42.8235 51.0934 42.8587 49.8369 42.8587C48.4395 42.8587 48.416 42.8587 47.5353 42.4242C45.8678 41.5905 44.6583 39.923 44.3647 38.0559C43.9772 35.5547 45.2806 33.0182 47.5353 31.9026C48.416 31.4681 48.4395 31.4681 49.8369 31.4681C51.0934 31.4681 51.3282 31.5034 51.9036 31.7617C52.2559 31.9144 52.8196 32.2666 53.1484 32.5367L53.7473 33.0299L54.6162 32.1375C55.0977 31.6325 55.6731 31.0336 55.8962 30.787L56.3072 30.3291L55.6261 29.7067C54.7806 28.9551 53.4185 28.2153 52.2794 27.8983C51.3047 27.6282 49.5668 27.5108 48.6156 27.6399Z" fill="white"/>
<path d="M65.584 27.6517C65.2082 27.7222 64.5976 27.8513 64.2453 27.957C61.2626 28.826 58.7027 31.5151 57.8807 34.6387C57.5284 35.9657 57.5284 38.3612 57.8807 39.6882C58.7379 42.9527 61.3448 45.5949 64.5741 46.4638C65.8189 46.8044 68.05 46.8044 69.2948 46.4638C72.5241 45.5949 75.131 42.9527 75.9882 39.6882C76.1879 38.9601 76.2348 38.3965 76.2348 37.1635C76.2348 35.9305 76.1879 35.3668 75.9882 34.6387C75.131 31.3742 72.4771 28.6851 69.3065 27.8748C68.2497 27.6047 66.5469 27.5108 65.584 27.6517ZM69.2008 31.8557C71.2206 32.7834 72.571 34.9206 72.571 37.1635C72.571 39.4064 71.2206 41.5201 69.2008 42.483C68.4375 42.847 68.3436 42.8588 66.9344 42.8588C65.5253 42.8588 65.4314 42.847 64.6681 42.483C64.1749 42.2481 63.5877 41.8371 63.1297 41.3909C61.1922 39.5355 60.7459 36.8229 61.9672 34.4156C62.3312 33.6993 63.4116 32.5485 64.0809 32.161C65.126 31.5386 65.7249 31.3977 67.1106 31.4447C68.2731 31.4799 68.4845 31.5151 69.2008 31.8557Z" fill="white"/>
<path d="M77.2683 37.1633V46.7925H79.1472H81.026V41.473C81.026 35.7542 81.0495 35.5076 81.6602 34.3802C82.7053 32.4779 84.4785 31.4093 86.6157 31.4093C89.0934 31.4093 91.2071 32.9828 91.9469 35.3901C92.1701 36.083 92.1818 36.494 92.1818 41.4612V46.7925H94.0607H95.9395V41.5317C95.9395 37.1751 95.9748 36.1534 96.1157 35.578C96.5267 34.0397 97.6657 32.6658 99.1806 31.9142C100.085 31.468 100.108 31.468 101.506 31.468C102.891 31.468 102.95 31.4798 103.807 31.8908C105.275 32.5953 106.391 33.8753 106.86 35.3901C107.084 36.083 107.095 36.494 107.095 41.4612V46.7925H108.986H110.877L110.83 41.1794C110.783 35.8598 110.771 35.531 110.524 34.6386C109.303 30.1645 105.169 27.1936 100.754 27.5929C98.4173 27.8042 96.7733 28.5675 95.1293 30.2115L94.0254 31.3154L93.3326 30.5403C90.3617 27.2406 85.5705 26.6182 81.6954 29.0137L81.0026 29.4482L80.0396 28.4853L79.0885 27.5341H78.1725H77.2683V37.1633Z" fill="white"/>
<path d="M120.118 27.6397C116.396 28.1681 113.366 30.9042 112.368 34.6502C112.015 35.9654 112.015 38.3609 112.368 39.6761C113.237 42.9524 115.632 45.4536 118.779 46.3931C120.2 46.8158 122.396 46.8393 123.817 46.4518C124.991 46.1347 126.377 45.3949 127.293 44.5964L128.009 43.974L126.694 42.6236L125.379 41.2732L124.991 41.6255C123.899 42.5766 122.713 42.9641 121.069 42.8937C120.036 42.8585 119.848 42.8115 119.061 42.424C118.58 42.1774 117.934 41.7429 117.629 41.4376C117.006 40.8387 116.313 39.8288 116.184 39.3473L116.114 39.042H123.347H130.581L130.663 38.7132C130.839 38.0321 130.745 35.6131 130.487 34.6854C129.606 31.4444 126.882 28.673 123.805 27.8745C122.784 27.6162 121.069 27.5105 120.118 27.6397ZM123.054 31.6323C123.946 31.9141 124.768 32.4308 125.438 33.1471C125.966 33.7107 126.494 34.5445 126.647 35.0142L126.718 35.2843H121.421H116.114L116.184 34.979C116.396 34.1452 117.605 32.7243 118.603 32.1372C119.883 31.3739 121.609 31.186 123.054 31.6323Z" fill="white"/>
<path d="M131.755 37.1633V46.7925H133.634H135.513V41.5317C135.513 38.4198 135.572 36.0712 135.642 35.7659C135.995 34.2276 137.286 32.654 138.778 31.9025C139.67 31.468 139.682 31.468 141.138 31.468C142.559 31.468 142.653 31.4798 143.416 31.8438C144.402 32.3135 145.577 33.4056 146.058 34.3215C146.774 35.6837 146.786 35.7542 146.786 41.5317V46.7925H148.677H150.567L150.52 41.1794C150.462 34.85 150.438 34.6621 149.487 32.7597C146.904 27.6046 140.48 25.9958 135.724 29.3308C135.548 29.4482 135.384 29.3425 134.538 28.4971L133.576 27.5341H132.66H131.755V37.1633Z" fill="white"/>
<path d="M179.021 27.6516C176.003 28.133 173.407 30.0236 172.033 32.7597C171.305 34.2158 171.071 35.2844 171.071 37.1633C171.071 38.3963 171.118 38.96 171.317 39.688C172.174 42.9408 174.828 45.6417 177.975 46.4402C180.524 47.0978 183.224 46.6751 185.291 45.3246C185.632 45.1015 185.949 44.9136 185.996 44.9136C186.031 44.9136 186.489 45.3364 187.006 45.853L187.945 46.7925H188.849H189.765V37.1633V27.5341H187.886H186.008V28.4736C186.008 28.9903 185.972 29.413 185.937 29.413C185.902 29.413 185.632 29.2486 185.35 29.049C183.682 27.9099 181.087 27.3345 179.021 27.6516ZM182.637 31.8555C184.657 32.7832 186.008 34.9204 186.008 37.1633C186.008 39.4062 184.657 41.5199 182.637 42.4828C181.874 42.8469 181.78 42.8586 180.371 42.8586C178.962 42.8586 178.868 42.8469 178.105 42.4828C177.611 42.248 177.024 41.837 176.566 41.3908C174.629 39.5354 174.182 36.8228 175.404 34.4155C175.768 33.6992 176.848 32.5484 177.517 32.1608C178.563 31.5385 179.161 31.3976 180.547 31.4445C181.71 31.4798 181.921 31.515 182.637 31.8555Z" fill="white"/>
<path d="M0 37.8094V46.4404H9.57046H19.1409V43.9744V41.5084H11.7429H4.34487L4.36836 37.7742L4.40358 34.0517L10.7213 34.0164L17.0272 33.993V31.5857V29.1784H8.5136H0V37.8094Z" fill="white"/>
</g>
<defs>
<clipPath id="clip0">
<rect width="190" height="59.419" fill="white" transform="translate(0 0.290527)"/>
</clipPath>
</defs>
</svg>
