<svg width="191" height="42" viewBox="0 0 191 42" fill="none" xmlns="http://www.w3.org/2000/svg">
<g clip-path="url(#clip0)">
<path d="M75.3304 13.4044C76.496 14.1109 77.4824 15.0823 78.1099 16.407C78.8272 17.7316 79.1859 19.3212 79.1859 21.0875C79.1859 22.8536 78.8272 24.355 78.0203 25.6796C77.303 27.0044 76.227 27.9757 74.8821 28.5939C73.5371 29.3003 71.923 29.6536 70.2195 29.6536C69.2332 29.6536 68.3364 29.4771 67.4399 29.1238C66.5431 28.8588 65.7362 28.329 65.1087 27.7108V36.8951H59.908V12.6979H64.3913L64.8396 14.6408C66.8122 13.0512 68.9641 12.2563 71.2057 12.2563C72.7302 12.2563 74.1648 12.6096 75.3304 13.4044ZM72.4611 24.355C73.3577 23.5602 73.8062 22.5005 73.8062 21.1757C73.8062 19.8511 73.3577 18.7914 72.5508 17.9083C71.7438 17.0252 70.6678 16.6719 69.5022 16.6719C68.5159 16.6719 67.6191 16.8485 66.9018 17.2901C66.1846 17.6433 65.6466 18.2615 65.1983 19.0563V23.0303C65.4673 23.8251 66.0052 24.4433 66.6329 24.8848C67.3502 25.3265 68.1572 25.5914 69.1436 25.5914C70.4884 25.5914 71.5644 25.1497 72.4611 24.355Z" fill="white"/>
<path d="M82.2342 16.4934C83.0413 15.257 84.1171 14.1973 85.5518 13.4908C86.9864 12.7843 88.6005 12.3428 90.3938 12.3428C92.1871 12.3428 93.801 12.696 95.2357 13.4908C96.5807 14.1973 97.6567 15.257 98.4636 16.5817C99.2706 17.9064 99.6292 19.3194 99.6292 20.9973C99.6292 22.6752 99.2706 24.0882 98.4636 25.4128C97.6567 26.7374 96.6703 27.7973 95.2357 28.5037C93.8906 29.2101 92.1871 29.6517 90.3938 29.6517C88.6005 29.6517 86.9864 29.2984 85.5518 28.592C84.1171 27.8855 83.0413 26.9141 82.2342 25.5893C81.5169 24.2647 81.0686 22.7635 81.0686 20.9973C81.0686 19.3194 81.5169 17.8181 82.2342 16.4934ZM87.5245 24.1765C88.2419 25.0595 89.2282 25.4128 90.3938 25.4128C91.5594 25.4128 92.5458 24.9713 93.2631 24.1765C93.9804 23.3816 94.3391 22.2335 94.3391 20.9973C94.3391 19.6726 93.9804 18.6129 93.2631 17.8181C92.456 16.935 91.5594 16.4934 90.3042 16.4934C89.1384 16.4934 88.2418 16.935 87.4349 17.7297C86.7176 18.6129 86.3589 19.6726 86.3589 20.9973C86.3589 22.2335 86.7176 23.2934 87.5245 24.1765Z" fill="white"/>
<path d="M108.059 0.157227V29.2115H102.858V0.157227H108.059Z" fill="white"/>
<path d="M129.398 13.1382L118.818 36.9821H113.797L117.742 28.416L110.21 13.1382H116.128L120.432 22.6757L124.736 13.1382H129.398Z" fill="white"/>
<path d="M149.303 13.1376V29.2103C149.303 30.7114 148.855 32.1244 147.958 33.3609C147.062 34.5971 145.896 35.5686 144.372 36.275C142.847 36.9816 141.233 37.3347 139.44 37.3347C138.095 37.3347 136.929 37.1582 135.943 36.8932C134.957 36.5399 134.15 36.1868 133.522 35.8335C132.805 35.3919 132.088 34.862 131.28 34.1556L134.329 30.6231C135.046 31.3297 135.853 31.8595 136.571 32.2128C137.288 32.5659 138.274 32.831 139.35 32.831C140.695 32.831 141.771 32.4777 142.668 31.8595C143.565 31.2413 144.013 30.27 144.013 29.1219V26.8258C143.475 27.6205 142.758 28.3271 141.682 28.857C140.606 29.3868 139.35 29.6517 137.916 29.6517C136.481 29.6517 135.046 29.2984 133.791 28.5037C132.536 27.7973 131.549 26.7374 130.743 25.4128C130.025 24.0882 129.577 22.6752 129.577 21.0856C129.577 19.4959 129.936 17.9947 130.743 16.67C131.549 15.3454 132.536 14.2856 133.881 13.4908C135.136 12.696 136.481 12.3428 137.916 12.3428C139.261 12.3428 140.426 12.5194 141.502 12.8726C142.578 13.2259 143.385 13.7558 143.923 14.3739L144.461 13.1376H149.303ZM144.013 23.0285V19.0544C143.654 18.2596 143.116 17.6414 142.309 17.1999C141.502 16.7583 140.606 16.4934 139.53 16.4934C138.274 16.4934 137.198 16.935 136.302 17.7297C135.405 18.5245 134.957 19.5843 134.957 20.9089C134.957 22.1453 135.405 23.2934 136.302 24.1765C137.198 25.0595 138.274 25.5012 139.53 25.5012C141.592 25.4128 143.116 24.618 144.013 23.0285Z" fill="white"/>
<path d="M153.608 16.4953C154.416 15.1706 155.491 14.1992 156.926 13.4044C158.361 12.6979 159.975 12.2563 161.768 12.2563C163.561 12.2563 165.175 12.6096 166.61 13.4044C167.955 14.1109 169.031 15.1706 169.838 16.4953C170.555 17.8199 171.003 19.2329 171.003 20.9108C171.003 22.5887 170.645 24.0017 169.838 25.3263C169.121 26.6511 168.045 27.7108 166.61 28.4172C165.265 29.1238 163.561 29.5652 161.768 29.5652C159.975 29.5652 158.361 29.2121 156.926 28.5056C155.491 27.7992 154.416 26.8276 153.608 25.503C152.802 24.1784 152.443 22.677 152.443 20.8226C152.443 19.3212 152.802 17.8199 153.608 16.4953ZM158.809 24.1784C159.526 25.0614 160.513 25.4147 161.678 25.4147C162.844 25.4147 163.83 24.9732 164.548 24.1784C165.265 23.3835 165.624 22.2356 165.624 20.9991C165.624 19.6745 165.265 18.6147 164.548 17.8199C163.83 17.0251 162.844 16.5836 161.678 16.5836C160.513 16.5836 159.616 17.0251 158.809 17.8199C158.002 18.6147 157.643 19.7627 157.643 20.9991C157.733 22.2356 158.092 23.2953 158.809 24.1784Z" fill="white"/>
<path d="M189.384 13.6674C190.46 14.5505 190.909 15.6986 190.998 17.1116V29.2103H185.708V19.0544C185.619 17.4648 184.812 16.67 183.287 16.67C182.122 16.67 181.136 17.1999 180.418 18.3479C179.701 19.4959 179.342 20.9089 179.342 22.5868V29.2103H174.142V13.1376H178.894L179.253 15.6986C179.88 14.6389 180.687 13.8441 181.763 13.2259C182.839 12.6077 184.095 12.3428 185.529 12.3428C187.053 12.3428 188.399 12.7843 189.384 13.6674Z" fill="white"/>
<path d="M37.6713 12.8747C36.7745 12.3448 35.6089 12.3448 34.6227 12.8747L27.6287 16.937L22.8765 19.5863L15.8827 23.6487C14.986 24.1785 13.8204 24.1785 12.8341 23.6487L7.27484 20.4694C6.37819 19.9396 5.75054 18.9681 5.75054 17.9084V11.6383C5.75054 10.5786 6.28853 9.60719 7.27484 9.07732L12.7444 5.98644C13.641 5.45658 14.8067 5.45658 15.793 5.98644L21.2626 9.07732C22.1592 9.60719 22.7869 10.5786 22.7869 11.6383V15.7006L27.5391 12.963V8.90071C27.5391 7.84098 27.0012 6.86955 26.0148 6.33968L15.8827 0.511169C14.986 -0.0186968 13.8204 -0.0186968 12.8341 0.511169L2.5226 6.33968C1.53628 6.86955 0.998291 7.84098 0.998291 8.90071V20.646C0.998291 21.7058 1.53628 22.6772 2.5226 23.207L12.8341 29.0355C13.7307 29.5655 14.8964 29.5655 15.8827 29.0355L22.8765 25.0617L27.6287 22.3239L34.6227 18.35C35.5193 17.8201 36.6849 17.8201 37.6713 18.35L43.1408 21.4409C44.0374 21.9708 44.6651 22.9421 44.6651 24.0018V30.272C44.6651 31.3316 44.1272 32.3032 43.1408 32.833L37.6713 36.0121C36.7745 36.5421 35.6089 36.5421 34.6227 36.0121L29.1532 32.9212C28.2564 32.3913 27.6287 31.42 27.6287 30.3603V26.2979L22.8765 29.0355V33.0979C22.8765 34.1576 23.4146 35.1291 24.4008 35.659L34.7123 41.4875C35.6089 42.0173 36.7745 42.0173 37.7609 41.4875L48.0725 35.659C48.969 35.1291 49.5967 34.1576 49.5967 33.0979V21.3526C49.5967 20.2929 49.0586 19.3214 48.0725 18.7915L37.6713 12.8747Z" fill="white"/>
</g>
<defs>
<clipPath id="clip0">
<rect width="190" height="41.8594" fill="white" transform="translate(0.998291 0.0703125)"/>
</clipPath>
</defs>
</svg>
